<?xml version="1.0" encoding="UTF-8" standalone="no"?>
<!-- Created with Inkscape (http://www.inkscape.org/) -->

<svg
   xmlns:dc="http://purl.org/dc/elements/1.1/"
   xmlns:cc="http://creativecommons.org/ns#"
   xmlns:rdf="http://www.w3.org/1999/02/22-rdf-syntax-ns#"
   xmlns:svg="http://www.w3.org/2000/svg"
   xmlns="http://www.w3.org/2000/svg"
   xmlns:xlink="http://www.w3.org/1999/xlink"
   xmlns:sodipodi="http://sodipodi.sourceforge.net/DTD/sodipodi-0.dtd"
   xmlns:inkscape="http://www.inkscape.org/namespaces/inkscape"
   width="1024"
   height="1024"
   viewBox="0 0 1024 1024"
   id="svg2"
   version="1.1"
   inkscape:version="0.91 r13725"
   sodipodi:docname="icon.svg"
   inkscape:export-filename="/Users/ukrainskiysergey/Desktop/icon.png"
   inkscape:export-xdpi="1.40625"
   inkscape:export-ydpi="1.40625">
  <defs
     id="defs4">
    <linearGradient
       inkscape:collect="always"
       id="linearGradient4184">
      <stop
         style="stop-color:#000000;stop-opacity:1;"
         offset="0"
         id="stop4186" />
      <stop
         style="stop-color:#000000;stop-opacity:0.73076922"
         offset="1"
         id="stop4188" />
    </linearGradient>
    <linearGradient
       inkscape:collect="always"
       id="linearGradient4174">
      <stop
         style="stop-color:#7790a7;stop-opacity:1"
         offset="0"
         id="stop4176" />
      <stop
         style="stop-color:#7790a7;stop-opacity:0.9"
         offset="1"
         id="stop4178" />
    </linearGradient>
    <radialGradient
       inkscape:collect="always"
       xlink:href="#linearGradient4174"
       id="radialGradient4182"
       cx="512"
       cy="-540.36212"
       fx="512"
       fy="-540.36212"
       r="482.70557"
       gradientUnits="userSpaceOnUse" />
    <linearGradient
       inkscape:collect="always"
       xlink:href="#linearGradient4184"
       id="linearGradient4190"
       x1="3.2215894e-07"
       y1="-1055.5399"
       x2="1030.0609"
       y2="-29.224998"
       gradientUnits="userSpaceOnUse" />
    <filter
       style="color-interpolation-filters:sRGB;"
       inkscape:label="Drop Shadow"
       id="filter4254">
      <feFlood
         flood-opacity="0.498039"
         flood-color="rgb(0,0,0)"
         result="flood"
         id="feFlood4256" />
      <feComposite
         in="flood"
         in2="SourceGraphic"
         operator="in"
         result="composite1"
         id="feComposite4258" />
      <feGaussianBlur
         in="composite1"
         stdDeviation="9.6"
         result="blur"
         id="feGaussianBlur4260" />
      <feOffset
         dx="-16.2"
         dy="15.7"
         result="offset"
         id="feOffset4262" />
      <feComposite
         in="SourceGraphic"
         in2="offset"
         operator="over"
         result="composite2"
         id="feComposite4264" />
    </filter>
    <filter
       style="color-interpolation-filters:sRGB;"
       inkscape:label="Drop Shadow"
       id="filter4278">
      <feFlood
         flood-opacity="0.498039"
         flood-color="rgb(0,0,0)"
         result="flood"
         id="feFlood4280" />
      <feComposite
         in="flood"
         in2="SourceGraphic"
         operator="in"
         result="composite1"
         id="feComposite4282" />
      <feGaussianBlur
         in="composite1"
         stdDeviation="9.6"
         result="blur"
         id="feGaussianBlur4284" />
      <feOffset
         dx="-16.2"
         dy="15.7"
         result="offset"
         id="feOffset4286" />
      <feComposite
         in="SourceGraphic"
         in2="offset"
         operator="over"
         result="composite2"
         id="feComposite4288" />
    </filter>
    <filter
       y="-0.25"
       height="1.5"
       inkscape:menu-tooltip="Darkens the edge with an inner blur and adds a flexible glow"
       inkscape:menu="Shadows and Glows"
       inkscape:label="Dark And Glow"
       style="color-interpolation-filters:sRGB;"
       id="filter4376">
      <feGaussianBlur
         stdDeviation="5"
         result="result6"
         id="feGaussianBlur4378" />
      <feComposite
         result="result8"
         in="SourceGraphic"
         operator="atop"
         in2="result6"
         id="feComposite4380" />
      <feComposite
         result="result9"
         operator="over"
         in2="SourceAlpha"
         in="result8"
         id="feComposite4382" />
      <feColorMatrix
         values="1 0 0 0 0 0 1 0 0 0 0 0 1 0 0 0 0 0 1 0 "
         result="result10"
         id="feColorMatrix4384" />
      <feBlend
         in="result10"
         mode="normal"
         in2="result6"
         id="feBlend4386" />
    </filter>
  </defs>
  <sodipodi:namedview
     id="base"
     pagecolor="#ffffff"
     bordercolor="#666666"
     borderopacity="1.0"
     inkscape:pageopacity="0.0"
     inkscape:pageshadow="2"
     inkscape:zoom="0.24748738"
     inkscape:cx="143.41122"
     inkscape:cy="322.7711"
     inkscape:document-units="px"
     inkscape:current-layer="layer1"
     showgrid="false"
     units="px"
     inkscape:window-width="1920"
     inkscape:window-height="1031"
     inkscape:window-x="4"
     inkscape:window-y="92"
     inkscape:window-maximized="0" />
  <metadata
     id="metadata7">
    <rdf:RDF>
      <cc:Work
         rdf:about="">
        <dc:format>image/svg+xml</dc:format>
        <dc:type
           rdf:resource="http://purl.org/dc/dcmitype/StillImage" />
        <dc:title />
      </cc:Work>
    </rdf:RDF>
  </metadata>
  <g
     inkscape:label="Layer 1"
     inkscape:groupmode="layer"
     id="layer1"
     transform="translate(0,-28.362138)"
     style="display:inline">
    <rect
       style="opacity:1;fill:url(#linearGradient4190);fill-opacity:1;fill-rule:nonzero;stroke:none;stroke-width:1;stroke-linecap:butt;stroke-linejoin:miter;stroke-miterlimit:4;stroke-dasharray:none;stroke-opacity:1"
       id="rect4719"
       width="1024"
       height="1024"
       x="0"
       y="-1052.3622"
       ry="128"
       transform="scale(1,-1)" />
    <rect
       style="display:inline;opacity:1;fill:url(#radialGradient4182);fill-opacity:1;fill-rule:nonzero;stroke:none;stroke-width:1;stroke-linecap:butt;stroke-linejoin:miter;stroke-miterlimit:4;stroke-dasharray:none;stroke-opacity:1;filter:url(#filter4376)"
       id="rect4719-8"
       width="965.41113"
       height="965.41113"
       x="29.294434"
       y="-1023.0677"
       ry="120.67639"
       transform="scale(1,-1)" />
  </g>
  <g
     inkscape:groupmode="layer"
     id="layer2"
     inkscape:label="Layer 2"
     style="display:inline">
    <path
       style="fill:#c8c8c8;filter:url(#filter4254)"
       d="m 90.571442,764.27817 0,-47.24469 46.916848,0 46.91685,0 0,47.24469 0,47.24469 -46.91685,0 -46.916848,0 z m 149.804688,0 0,-47.24469 46.91685,0 46.91685,0 0,47.24469 0,47.24469 -46.91685,0 -46.91685,0 z m 449.41405,0 0,-47.24469 46.91685,0 46.91685,0 0,47.24469 0,47.24469 -46.91685,0 -46.91685,0 z M 90.571442,615.00083 l 0,-47.24469 46.916848,0 46.91685,0 0,47.24469 0,47.24469 -46.91685,0 -46.916848,0 z m 149.804688,0 0,-47.24469 46.91685,0 46.91685,0 0,47.24469 0,47.24469 -46.91685,0 -46.91685,0 z m 449.41405,0 0,-47.24469 46.91685,0 46.91685,0 0,47.24469 0,47.24469 -46.91685,0 -46.91685,0 z m 149.80468,0 0,-47.24469 46.91685,0 46.91685,0 0,47.24469 0,47.24469 -46.91685,0 -46.91685,0 z M 240.93165,513.2394 c -0.30554,-0.29474 -0.55552,-21.73646 -0.55552,-47.64826 l 0,-47.11235 46.92332,0 46.92333,0 -0.21225,47.4432 -0.21225,47.4432 -46.15556,0.20506 c -25.38555,0.11277 -46.40553,-0.0361 -46.71107,-0.33085 z m 149.80468,0 c -0.30554,-0.29474 -0.55552,-21.73646 -0.55552,-47.64826 l 0,-47.11235 46.92333,0 46.92333,0 -0.21226,47.4432 -0.21225,47.4432 -46.15556,0.20506 c -25.38554,0.11277 -46.40553,-0.0361 -46.71107,-0.33085 z m 449.40727,-0.007 c -0.30181,-0.29114 -0.54874,-21.72991 -0.54874,-47.64171 l 0,-47.11235 46.91685,0 46.91685,0 0,47.64171 0,47.6417 -46.36811,0 c -25.50247,0 -46.61505,-0.23821 -46.91685,-0.52935 z m -599.76747,-196.38969 0,-47.64171 46.91685,0 46.91685,0 0,47.64171 0,47.6417 -46.91685,0 -46.91685,0 z m 299.60936,0 0,-47.64171 46.91685,0 46.91686,0 0,47.64171 0,47.6417 -46.91686,0 -46.91685,0 z m 299.60937,0 0,-47.64171 46.91685,0 46.91685,0 0,47.64171 0,47.6417 -46.91685,0 -46.91685,0 z"
       id="path4211"
       inkscape:connector-curvature="0"
       transform="translate(0,-28.362138)"
       sodipodi:nodetypes="ccccccccccccccccccccccccccccccccccccccccccccccccccccccccccccccccscccccsccscccccsccscccccscccccccccccccccccccccccccccc" />
    <path
       style="fill:#000000;filter:url(#filter4278)"
       d="m 391.00391,764.27817 0,-47.24469 46.09375,0 46.09375,0 0,47.24469 0,47.24469 -46.09375,0 -46.09375,0 0,-47.24469 z m 149.80468,0 0,-47.24469 46.09375,0 46.09375,0 0,47.24469 0,47.24469 -46.09375,0 -46.09375,0 0,-47.24469 z m 299.60937,0 0,-47.24469 46.5053,0 46.5053,0 0,47.24469 0,47.24469 -46.5053,0 -46.5053,0 0,-47.24469 z m -449.41405,-149.27734 0,-47.24469 46.09375,0 46.09375,0 0,47.24469 0,47.24469 -46.09375,0 -46.09375,0 0,-47.24469 z m 149.80468,0 0,-47.24469 46.09375,0 46.09375,0 0,47.24469 0,47.24469 -46.09375,0 -46.09375,0 0,-47.24469 z m 0,-149.27735 0,-47.24469 46.09375,0 46.09375,0 0,47.24469 0,47.24469 -46.09375,0 -46.09375,0 0,-47.24469 z m 149.80469,-0.006 0,-47.2513 46.29952,0.20512 46.29953,0.20512 0.2123,47.04618 0.2123,47.04619 -46.51182,0 -46.51183,0 0,-47.25131 z"
       id="path4201"
       inkscape:connector-curvature="0"
       transform="translate(0,-28.362138)" />
  </g>
</svg>
